<svg xmlns="http://www.w3.org/2000/svg" viewBox="0 0 430 900">
  <defs>
    <marker id="arr" markerWidth="8" markerHeight="6" refX="7" refY="3" orient="auto">
      <polygon points="0 0, 8 3, 0 6" fill="#8e8e93"/>
    </marker>
    <filter id="glass" x="-20%" y="-20%" width="140%" height="140%">
      <feGaussianBlur in="SourceGraphic" stdDeviation="8" result="blur"/>
      <feColorMatrix in="blur" type="matrix" values="1 0 0 0 0  0 1 0 0 0  0 0 1 0 0  0 0 0 18 -7" result="glass"/>
      <feComposite in="SourceGraphic" in2="glass" operator="over"/>
    </filter>
    <filter id="shadowLight">
      <feDropShadow dx="0" dy="4" stdDeviation="8" flood-color="#000" flood-opacity="0.08"/>
    </filter>
    <linearGradient id="gradBlue" x1="0%" y1="0%" x2="0%" y2="100%">
      <stop offset="0%" stop-color="#007AFF"/>
      <stop offset="100%" stop-color="#5856D6"/>
    </linearGradient>
    <linearGradient id="gradGreen" x1="0%" y1="0%" x2="0%" y2="100%">
      <stop offset="0%" stop-color="#34C759"/>
      <stop offset="100%" stop-color="#30D158"/>
    </linearGradient>
    <linearGradient id="gradOrange" x1="0%" y1="0%" x2="0%" y2="100%">
      <stop offset="0%" stop-color="#FF9500"/>
      <stop offset="100%" stop-color="#FF9F0A"/>
    </linearGradient>
    <linearGradient id="gradPink" x1="0%" y1="0%" x2="0%" y2="100%">
      <stop offset="0%" stop-color="#FF2D55"/>
      <stop offset="100%" stop-color="#FF375F"/>
    </linearGradient>
    <linearGradient id="gradPurple" x1="0%" y1="0%" x2="0%" y2="100%">
      <stop offset="0%" stop-color="#AF52DE"/>
      <stop offset="100%" stop-color="#BF5AF2"/>
    </linearGradient>
    <linearGradient id="gradTeal" x1="0%" y1="0%" x2="0%" y2="100%">
      <stop offset="0%" stop-color="#5AC8FA"/>
      <stop offset="100%" stop-color="#64D2FF"/>
    </linearGradient>
    <linearGradient id="gradGray" x1="0%" y1="0%" x2="0%" y2="100%">
      <stop offset="0%" stop-color="#8E8E93"/>
      <stop offset="100%" stop-color="#98989D"/>
    </linearGradient>
  </defs>

  <!-- Background -->
  <rect width="430" height="900" fill="#F2F2F7" rx="40"/>

  <!-- Status Bar hint -->
  <rect x="130" y="15" width="170" height="28" rx="14" fill="#1C1C1E" opacity="0.15"/>
  <rect x="185" y="24" width="60" height="10" rx="5" fill="#1C1C1E" opacity="0.15"/>

  <!-- Title -->
  <text x="215" y="75" text-anchor="middle" font-size="26" font-weight="bold" fill="#1C1C1E">Naja 认知系统</text>
  <text x="215" y="95" text-anchor="middle" font-size="13" fill="#8E8E93">感知层 → 认知层 → 决策层</text>

  <!-- Layer 1: 外部世界 -->
  <rect x="20" y="115" width="390" height="55" rx="16" fill="white" fill-opacity="0.8" filter="url(#shadowLight)" stroke="rgba(0,0,0,0.05)"/>
  <rect x="35" y="130" width="40" height="25" rx="8" fill="url(#gradOrange)" opacity="0.9"/>
  <text x="55" y="147" text-anchor="middle" font-size="14" fill="white">🌐</text>
  <text x="195" y="138" text-anchor="middle" font-size="15" font-weight="600" fill="#1C1C1E">外部世界</text>
  <text x="195" y="156" text-anchor="middle" font-size="11" fill="#8E8E93">新闻 · 行情 · 舆情 · 宏观</text>

  <line x1="215" y1="170" x2="215" y2="195" stroke="#C7C7CC" stroke-width="2" marker-end="url(#arr)"/>

  <!-- Layer 2: Radar 感知层 -->
  <rect x="20" y="200" width="390" height="95" rx="16" fill="white" fill-opacity="0.8" filter="url(#shadowLight)" stroke="rgba(0,0,0,0.05)"/>
  <rect x="35" y="215" width="40" height="25" rx="8" fill="url(#gradBlue)" opacity="0.9"/>
  <text x="55" y="232" text-anchor="middle" font-size="14" fill="white">📡</text>
  <text x="200" y="222" text-anchor="middle" font-size="15" font-weight="600" fill="#1C1C1E">Radar 感知层</text>
  <text x="200" y="238" text-anchor="middle" font-size="10" fill="#8E8E93">发现信号 · 异常检测</text>

  <rect x="40" y="252" width="75" height="32" rx="10" fill="rgba(0,122,255,0.12)"/>
  <text x="77" y="272" text-anchor="middle" font-size="9" fill="#007AFF" font-weight="500">NewsFetcher</text>

  <rect x="125" y="252" width="95" height="32" rx="10" fill="rgba(0,122,255,0.12)"/>
  <text x="172" y="272" text-anchor="middle" font-size="9" fill="#007AFF" font-weight="500">GlobalScanner</text>

  <rect x="230" y="252" width="80" height="32" rx="10" fill="rgba(0,122,255,0.12)"/>
  <text x="270" y="272" text-anchor="middle" font-size="9" fill="#007AFF" font-weight="500">Anomaly</text>

  <rect x="320" y="252" width="70" height="32" rx="10" fill="rgba(0,122,255,0.12)"/>
  <text x="355" y="272" text-anchor="middle" font-size="9" fill="#007AFF" font-weight="500">Clock</text>

  <line x1="215" y1="295" x2="215" y2="320" stroke="#C7C7CC" stroke-width="2" marker-end="url(#arr)"/>

  <!-- Layer 3: Cognition 认知层 -->
  <rect x="20" y="325" width="390" height="260" rx="16" fill="white" fill-opacity="0.8" filter="url(#shadowLight)" stroke="rgba(0,0,0,0.05)"/>
  <rect x="35" y="340" width="40" height="25" rx="8" fill="url(#gradGreen)" opacity="0.9"/>
  <text x="55" y="357" text-anchor="middle" font-size="14" fill="white">🧠</text>
  <text x="200" y="347" text-anchor="middle" font-size="15" font-weight="600" fill="#1C1C1E">Cognition 认知层</text>
  <text x="200" y="363" text-anchor="middle" font-size="10" fill="#8E8E93">文本处理 · 叙事追踪 · 注意力过滤</text>

  <!-- TextSignalBus -->
  <rect x="35" y="385" width="170" height="65" rx="14" fill="rgba(255,45,85,0.1)" stroke="rgba(255,45,85,0.2)"/>
  <text x="120" y="405" text-anchor="middle" font-size="12" font-weight="600" fill="#FF2D55">TextSignalBus</text>
  <text x="120" y="422" text-anchor="middle" font-size="9" fill="#FF375F">注意力阈值过滤</text>
  <text x="120" y="437" text-anchor="middle" font-size="8" fill="#FF6480">min_att: 0.4 ~ 0.7</text>

  <!-- TextProcessingPipeline -->
  <rect x="215" y="385" width="175" height="65" rx="14" fill="rgba(88,86,214,0.1)" stroke="rgba(88,86,214,0.2)"/>
  <text x="302" y="405" text-anchor="middle" font-size="11" font-weight="600" fill="#5856D6">TextProcessingPipeline</text>
  <text x="302" y="422" text-anchor="middle" font-size="9" fill="#7C7ADE">关键词提取 · 注意力评分</text>
  <text x="302" y="437" text-anchor="middle" font-size="8" fill="#9999FF">AttentionTextRouter</text>

  <!-- 天-地-人 -->
  <text x="215" y="470" text-anchor="middle" font-size="11" font-weight="600" fill="#1C1C1E">☁️ 天-地-人 叙事框架</text>

  <rect x="35" y="482" width="115" height="50" rx="12" fill="rgba(255,149,0,0.1)" stroke="rgba(255,149,0,0.25)"/>
  <text x="92" y="500" text-anchor="middle" font-size="10" font-weight="600" fill="#FF9500">☁️ 天</text>
  <text x="92" y="514" text-anchor="middle" font-size="8" fill="#FF9F0A">TimingNarrative</text>
  <text x="92" y="526" text-anchor="middle" font-size="7" fill="#FFB340">时机 · 现在能动吗</text>

  <rect x="157" y="482" width="115" height="50" rx="12" fill="rgba(52,199,89,0.1)" stroke="rgba(52,199,89,0.25)"/>
  <text x="214" y="500" text-anchor="middle" font-size="10" font-weight="600" fill="#34C759">🌍 地</text>
  <text x="214" y="514" text-anchor="middle" font-size="8" fill="#30D158">SectorNarrative</text>
  <text x="214" y="526" text-anchor="middle" font-size="7" fill="#63E085">板块 · 关心什么</text>

  <rect x="280" y="482" width="115" height="50" rx="12" fill="rgba(90,200,250,0.1)" stroke="rgba(90,200,250,0.25)"/>
  <text x="337" y="500" text-anchor="middle" font-size="10" font-weight="600" fill="#5AC8FA">🔗 供应</text>
  <text x="337" y="514" text-anchor="middle" font-size="8" fill="#64D2FF">SupplyChain</text>
  <text x="337" y="526" text-anchor="middle" font-size="7" fill="#8EDBFF">风险感知</text>

  <!-- CognitiveSignalBus -->
  <rect x="35" y="542" width="170" height="30" rx="10" fill="rgba(52,199,89,0.08)"/>
  <text x="120" y="560" text-anchor="middle" font-size="10" fill="#34C759" font-weight="500">CognitiveSignalBus</text>

  <rect x="215" y="542" width="85" height="30" rx="10" fill="rgba(175,82,222,0.08)"/>
  <text x="257" y="560" text-anchor="middle" font-size="9" fill="#AF52DE" font-weight="500">Liquidity</text>

  <rect x="308" y="542" width="82" height="30" rx="10" fill="rgba(255,45,85,0.08)"/>
  <text x="349" y="560" text-anchor="middle" font-size="9" fill="#FF2D55" font-weight="500">Keyword</text>

  <line x1="215" y1="585" x2="215" y2="610" stroke="#C7C7CC" stroke-width="2" marker-end="url(#arr)"/>

  <!-- Layer 4: ManasEngine -->
  <rect x="20" y="615" width="390" height="210" rx="16" fill="white" fill-opacity="0.8" filter="url(#shadowLight)" stroke="rgba(0,0,0,0.05)"/>
  <rect x="35" y="630" width="40" height="25" rx="8" fill="url(#gradOrange)" opacity="0.9"/>
  <text x="55" y="647" text-anchor="middle" font-size="14" fill="white">🧠</text>
  <text x="200" y="637" text-anchor="middle" font-size="15" font-weight="600" fill="#1C1C1E">ManasEngine 决策</text>
  <text x="200" y="653" text-anchor="middle" font-size="10" fill="#8E8E93">天-地-人（人）| 四引擎 + 观照层</text>

  <!-- 四引擎 -->
  <rect x="35" y="670" width="75" height="55" rx="12" fill="rgba(0,122,255,0.1)" stroke="rgba(0,122,255,0.2)"/>
  <text x="72" y="688" text-anchor="middle" font-size="9" font-weight="600" fill="#007AFF">Timing</text>
  <text x="72" y="700" text-anchor="middle" font-size="7" fill="#007AFF">时机节律</text>
  <text x="72" y="714" text-anchor="middle" font-size="6" fill="#64A7FF">timing ∈ [0,1]</text>

  <rect x="118" y="670" width="75" height="55" rx="12" fill="rgba(52,199,89,0.1)" stroke="rgba(52,199,89,0.2)"/>
  <text x="155" y="688" text-anchor="middle" font-size="9" font-weight="600" fill="#34C759">Regime</text>
  <text x="155" y="700" text-anchor="middle" font-size="7" fill="#34C759">环境感</text>
  <text x="155" y="714" text-anchor="middle" font-size="6" fill="#63E085">regime ∈ [-1,1]</text>

  <rect x="201" y="670" width="75" height="55" rx="12" fill="rgba(255,149,0,0.1)" stroke="rgba(255,149,0,0.2)"/>
  <text x="238" y="688" text-anchor="middle" font-size="9" font-weight="600" fill="#FF9500">Confidence</text>
  <text x="238" y="700" text-anchor="middle" font-size="7" fill="#FF9500">自信</text>
  <text x="238" y="714" text-anchor="middle" font-size="6" fill="#FFB340">conf ∈ [0,1.5]</text>

  <rect x="284" y="670" width="75" height="55" rx="12" fill="rgba(90,200,250,0.1)" stroke="rgba(90,200,250,0.2)"/>
  <text x="321" y="688" text-anchor="middle" font-size="9" font-weight="600" fill="#5AC8FA">Risk</text>
  <text x="321" y="700" text-anchor="middle" font-size="7" fill="#5AC8FA">风险</text>
  <text x="321" y="714" text-anchor="middle" font-size="6" fill="#8EDBFF">T ∈ (0,2]</text>

  <!-- MetaManas -->
  <rect x="35" y="733" width="165" height="40" rx="12" fill="rgba(255,45,85,0.1)" stroke="rgba(255,45,85,0.25)"/>
  <text x="117" y="750" text-anchor="middle" font-size="10" font-weight="600" fill="#FF2D55">MetaManas</text>
  <text x="117" y="763" text-anchor="middle" font-size="8" fill="#FF375F">偏差纠偏 · bias_state</text>

  <!-- ManasScore -->
  <rect x="210" y="733" width="185" height="40" rx="12" fill="rgba(255,159,10,0.12)" stroke="rgba(255,159,10,0.3)"/>
  <text x="302" y="750" text-anchor="middle" font-size="10" font-weight="600" fill="#FF9F0A">ManasScore 统一输出</text>
  <text x="302" y="763" text-anchor="middle" font-size="8" fill="#FFB340">manas ∈ [0,1]</text>

  <line x1="215" y1="825" x2="215" y2="845" stroke="#C7C7CC" stroke-width="2" marker-end="url(#arr)"/>

  <!-- Layer 5: TradingCenter -->
  <rect x="20" y="850" width="390" height="45" rx="16" fill="white" fill-opacity="0.8" filter="url(#shadowLight)" stroke="rgba(0,0,0,0.05)"/>
  <rect x="35" y="862" width="40" height="22" rx="8" fill="url(#gradPurple)" opacity="0.9"/>
  <text x="55" y="877" text-anchor="middle" font-size="12" fill="white">📊</text>
  <text x="210" y="873" text-anchor="middle" font-size="14" font-weight="600" fill="#1C1C1E">TradingCenter</text>
  <text x="340" y="873" text-anchor="middle" font-size="11" fill="#8E8E93">→ 执行</text>

  <!-- Home Indicator -->
  <rect x="145" y="875" width="140" height="5" rx="2.5" fill="#1C1C1E" opacity="0.2"/>
</svg>