<svg xmlns="http://www.w3.org/2000/svg" viewBox="0 0 1200 950">
  <defs>
    <!-- Gradients -->
    <linearGradient id="bgGrad" x1="0%" y1="0%" x2="0%" y2="100%">
      <stop offset="0%" style="stop-color:#0c1222;stop-opacity:1" />
      <stop offset="100%" style="stop-color:#0f172a;stop-opacity:1" />
    </linearGradient>

    <linearGradient id="tradingCenterGrad" x1="0%" y1="0%" x2="100%" y2="0%">
      <stop offset="0%" style="stop-color:#1e3a5f;stop-opacity:1" />
      <stop offset="50%" style="stop-color:#2563eb;stop-opacity:1" />
      <stop offset="100%" style="stop-color:#1e3a5f;stop-opacity:1" />
    </linearGradient>

    <linearGradient id="attentionGrad" x1="0%" y1="0%" x2="0%" y2="100%">
      <stop offset="0%" style="stop-color:#1e3a5f;stop-opacity:1" />
      <stop offset="100%" style="stop-color:#172554;stop-opacity:1" />
    </linearGradient>

    <linearGradient id="manasGrad" x1="0%" y1="0%" x2="0%" y2="100%">
      <stop offset="0%" style="stop-color:#78350f;stop-opacity:1" />
      <stop offset="100%" style="stop-color:#451a03;stop-opacity:1" />
    </linearGradient>

    <linearGradient id="fpGrad" x1="0%" y1="0%" x2="0%" y2="100%">
      <stop offset="0%" style="stop-color:#4c1d95;stop-opacity:1" />
      <stop offset="100%" style="stop-color:#2e1065;stop-opacity:1" />
    </linearGradient>

    <linearGradient id="alayaGrad" x1="0%" y1="0%" x2="0%" y2="100%">
      <stop offset="0%" style="stop-color:#065f46;stop-opacity:1" />
      <stop offset="100%" style="stop-color:#022c22;stop-opacity:1" />
    </linearGradient>

    <linearGradient id="fusionGrad" x1="0%" y1="0%" x2="0%" y2="100%">
      <stop offset="0%" style="stop-color:#831843;stop-opacity:1" />
      <stop offset="100%" style="stop-color:#4a044e;stop-opacity:1" />
    </linearGradient>

    <linearGradient id="outputGrad" x1="0%" y1="0%" x2="0%" y2="100%">
      <stop offset="0%" style="stop-color:#064e3b;stop-opacity:1" />
      <stop offset="100%" style="stop-color:#022c22;stop-opacity:1" />
    </linearGradient>

    <linearGradient id="computeGrad" x1="0%" y1="0%" x2="100%" y2="0%">
      <stop offset="0%" style="stop-color:#1e40af;stop-opacity:1" />
      <stop offset="100%" style="stop-color:#3b82f6;stop-opacity:1" />
    </linearGradient>

    <linearGradient id="decisionGrad" x1="0%" y1="0%" x2="100%" y2="0%">
      <stop offset="0%" style="stop-color:#0369a1;stop-opacity:1" />
      <stop offset="100%" style="stop-color:#0ea5e9;stop-opacity:1" />
    </linearGradient>

    <linearGradient id="schedulerGrad" x1="0%" y1="0%" x2="100%" y2="0%">
      <stop offset="0%" style="stop-color:#1d4ed8;stop-opacity:1" />
      <stop offset="100%" style="stop-color:#3b82f6;stop-opacity:1" />
    </linearGradient>

    <!-- Filters -->
    <filter id="glow" x="-50%" y="-50%" width="200%" height="200%">
      <feGaussianBlur stdDeviation="4" result="coloredBlur"/>
      <feMerge>
        <feMergeNode in="coloredBlur"/>
        <feMergeNode in="SourceGraphic"/>
      </feMerge>
    </filter>

    <filter id="cardShadow" x="-20%" y="-20%" width="140%" height="140%">
      <feDropShadow dx="0" dy="4" stdDeviation="8" flood-opacity="0.4"/>
    </filter>

    <filter id="innerGlow" x="-20%" y="-20%" width="140%" height="140%">
      <feDropShadow dx="0" dy="0" stdDeviation="6" flood-color="#3b82f6" flood-opacity="0.3"/>
    </filter>

    <!-- Arrow marker -->
    <marker id="arrow" markerWidth="8" markerHeight="8" refX="7" refY="4" orient="auto">
      <path d="M0,0 L8,4 L0,8 L2,4 Z" fill="#64748b"/>
    </marker>

    <marker id="arrowBlue" markerWidth="8" markerHeight="8" refX="7" refY="4" orient="auto">
      <path d="M0,0 L8,4 L0,8 L2,4 Z" fill="#3b82f6"/>
    </marker>

    <marker id="arrowAmber" markerWidth="8" markerHeight="8" refX="7" refY="4" orient="auto">
      <path d="M0,0 L8,4 L0,8 L2,4 Z" fill="#f59e0b"/>
    </marker>

    <marker id="arrowGreen" markerWidth="8" markerHeight="8" refX="7" refY="4" orient="auto">
      <path d="M0,0 L8,4 L0,8 L2,4 Z" fill="#10b981"/>
    </marker>
  </defs>

  <!-- Background -->
  <rect width="1200" height="950" fill="url(#bgGrad)"/>

  <!-- Subtle grid pattern -->
  <g opacity="0.03">
    <line x1="0" y1="100" x2="1200" y2="100" stroke="#fff" stroke-width="1"/>
    <line x1="0" y1="200" x2="1200" y2="200" stroke="#fff" stroke-width="1"/>
    <line x1="0" y1="300" x2="1200" y2="300" stroke="#fff" stroke-width="1"/>
    <line x1="0" y1="400" x2="1200" y2="400" stroke="#fff" stroke-width="1"/>
    <line x1="0" y1="500" x2="1200" y2="500" stroke="#fff" stroke-width="1"/>
    <line x1="0" y1="600" x2="1200" y2="600" stroke="#fff" stroke-width="1"/>
    <line x1="0" y1="700" x2="1200" y2="700" stroke="#fff" stroke-width="1"/>
    <line x1="0" y1="800" x2="1200" y2="800" stroke="#fff" stroke-width="1"/>
    <line x1="200" y1="0" x2="200" y2="950" stroke="#fff" stroke-width="1"/>
    <line x1="400" y1="0" x2="400" y2="950" stroke="#fff" stroke-width="1"/>
    <line x1="600" y1="0" x2="600" y2="950" stroke="#fff" stroke-width="1"/>
    <line x1="800" y1="0" x2="800" y2="950" stroke="#fff" stroke-width="1"/>
    <line x1="1000" y1="0" x2="1000" y2="950" stroke="#fff" stroke-width="1"/>
  </g>

  <!-- ========== Title Section ========== -->
  <text x="600" y="50" text-anchor="middle" fill="#f1f5f9" font-family="system-ui, -apple-system, sans-serif" font-size="26" font-weight="bold" filter="url(#glow)">注意力操作系统</text>
  <text x="600" y="75" text-anchor="middle" fill="#64748b" font-family="system-ui, -apple-system, sans-serif" font-size="13">Attentive Operating System Architecture</text>

  <!-- ========== Layer Labels ========== -->
  <text x="40" y="115" fill="#3b82f6" font-family="system-ui, sans-serif" font-size="10" font-weight="600" opacity="0.8">LAYER 1</text>
  <text x="40" y="128" fill="#e2e8f0" font-family="system-ui, sans-serif" font-size="9" opacity="0.6">协调层</text>

  <text x="40" y="225" fill="#3b82f6" font-family="system-ui, sans-serif" font-size="10" font-weight="600" opacity="0.8">LAYER 2</text>
  <text x="40" y="238" fill="#e2e8f0" font-family="system-ui, sans-serif" font-size="9" opacity="0.6">执行层</text>

  <text x="40" y="640" fill="#ec4899" font-family="system-ui, sans-serif" font-size="10" font-weight="600" opacity="0.8">LAYER 3</text>
  <text x="40" y="653" fill="#e2e8f0" font-family="system-ui, sans-serif" font-size="9" opacity="0.6">融合层</text>

  <!-- ========== TradingCenter ========== -->
  <rect x="150" y="85" width="900" height="75" rx="12" fill="url(#tradingCenterGrad)" filter="url(#cardShadow)"/>
  <rect x="150" y="85" width="900" height="75" rx="12" fill="none" stroke="#3b82f6" stroke-width="1" opacity="0.5"/>
  <text x="600" y="118" text-anchor="middle" fill="#fff" font-family="system-ui, sans-serif" font-size="18" font-weight="bold">TradingCenter</text>
  <text x="600" y="142" text-anchor="middle" fill="#93c5fd" font-family="system-ui, sans-serif" font-size="11">process_market_data() = AttentionOS + FirstPrinciplesMind + AwakenedAlaya</text>

  <!-- ========== Three Main Pillars ========== -->
  <!-- AttentionOS Container -->
  <rect x="50" y="195" width="380" height="420" rx="16" fill="url(#attentionGrad)" filter="url(#cardShadow)"/>
  <rect x="50" y="195" width="380" height="420" rx="16" fill="none" stroke="#3b82f6" stroke-width="1" opacity="0.4"/>

  <!-- Header stripe -->
  <rect x="50" y="195" width="380" height="45" rx="16" fill="url(#computeGrad)"/>
  <rect x="50" y="225" width="380" height="15" fill="url(#computeGrad)"/>
  <text x="240" y="223" text-anchor="middle" fill="#fff" font-family="system-ui, sans-serif" font-size="15" font-weight="bold">AttentionOS</text>

  <!-- Sub-components inside -->
  <rect x="70" y="260" width="340" height="70" rx="8" fill="#0f172a" stroke="#60a5fa" stroke-width="1" opacity="0.8"/>
  <text x="240" y="288" text-anchor="middle" fill="#60a5fa" font-family="system-ui, sans-serif" font-size="13" font-weight="bold">compute_attention()</text>
  <text x="240" y="308" text-anchor="middle" fill="#93c5fd" font-family="system-ui, sans-serif" font-size="10">QKV 注意力计算</text>
  <text x="240" y="323" text-anchor="middle" fill="#64748b" font-family="system-ui, sans-serif" font-size="9">events → attention_weights</text>

  <rect x="70" y="345" width="340" height="70" rx="8" fill="#0f172a" stroke="#0ea5e9" stroke-width="1" opacity="0.8"/>
  <text x="240" y="373" text-anchor="middle" fill="#0ea5e9" font-family="system-ui, sans-serif" font-size="13" font-weight="bold">make_decision()</text>
  <text x="240" y="393" text-anchor="middle" fill="#7dd3fc" font-family="system-ui, sans-serif" font-size="10">ManasEngine 决策中枢</text>
  <text x="240" y="408" text-anchor="middle" fill="#64748b" font-family="system-ui, sans-serif" font-size="9">→ harmony_state, action_type</text>

  <rect x="70" y="430" width="340" height="75" rx="8" fill="#0f172a" stroke="#3b82f6" stroke-width="1" opacity="0.8"/>
  <text x="240" y="458" text-anchor="middle" fill="#3b82f6" font-family="system-ui, sans-serif" font-size="13" font-weight="bold">MarketScheduler</text>
  <text x="240" y="478" text-anchor="middle" fill="#93c5fd" font-family="system-ui, sans-serif" font-size="10">symbol_weights · sector_weights</text>
  <text x="240" y="495" text-anchor="middle" fill="#93c5fd" font-family="system-ui, sans-serif" font-size="10">frequency_level · strategy_allocations</text>

  <!-- Output indicators -->
  <rect x="70" y="520" width="155" height="80" rx="8" fill="#0f172a" stroke="#60a5fa" stroke-width="1.5"/>
  <circle cx="95" cy="545" r="4" fill="#60a5fa"/>
  <text x="147" y="548" text-anchor="middle" fill="#60a5fa" font-family="system-ui, sans-serif" font-size="11" font-weight="bold">attention_weights</text>
  <text x="147" y="568" text-anchor="middle" fill="#64748b" font-family="system-ui, sans-serif" font-size="9">→ 关注什么/多少</text>
  <text x="147" y="588" text-anchor="middle" fill="#475569" font-family="system-ui, sans-serif" font-size="8">alpha × harmony × confidence</text>

  <rect x="240" y="520" width="170" height="80" rx="8" fill="#0f172a" stroke="#3b82f6" stroke-width="1.5"/>
  <circle cx="265" cy="545" r="4" fill="#3b82f6"/>
  <text x="325" y="548" text-anchor="middle" fill="#3b82f6" font-family="system-ui, sans-serif" font-size="11" font-weight="bold">harmony_state</text>
  <text x="325" y="568" text-anchor="middle" fill="#64748b" font-family="system-ui, sans-serif" font-size="9">→ 该不该行动</text>
  <text x="325" y="588" text-anchor="middle" fill="#475569" font-family="system-ui, sans-serif" font-size="8">bullish / bearish / neutral</text>

  <!-- ========== ManasEngine Detail ========== -->
  <rect x="480" y="420" width="240" height="180" rx="12" fill="url(#manasGrad)" filter="url(#cardShadow)"/>
  <rect x="480" y="420" width="240" height="180" rx="12" fill="none" stroke="#f59e0b" stroke-width="1" opacity="0.5"/>
  <rect x="480" y="420" width="240" height="38" rx="12" fill="#b45309"/>
  <rect x="480" y="448" width="240" height="10" fill="#b45309"/>
  <text x="600" y="446" text-anchor="middle" fill="#fff" font-family="system-ui, sans-serif" font-size="14" font-weight="bold">ManasEngine</text>

  <text x="600" y="475" text-anchor="middle" fill="#fbbf24" font-family="system-ui, sans-serif" font-size="10" font-weight="600">三维融合决策中枢</text>

  <!-- Three dimensions as cards -->
  <rect x="495" y="490" width="70" height="45" rx="6" fill="#0f172a" stroke="#f59e0b" stroke-width="1"/>
  <text x="530" y="512" text-anchor="middle" fill="#f59e0b" font-family="system-ui, sans-serif" font-size="11" font-weight="bold">天时</text>
  <text x="530" y="526" text-anchor="middle" fill="#94a3b8" font-family="system-ui, sans-serif" font-size="8">宏观流动性</text>

  <rect x="575" y="490" width="70" height="45" rx="6" fill="#0f172a" stroke="#f59e0b" stroke-width="1"/>
  <text x="610" y="512" text-anchor="middle" fill="#f59e0b" font-family="system-ui, sans-serif" font-size="11" font-weight="bold">地势</text>
  <text x="610" y="526" text-anchor="middle" fill="#94a3b8" font-family="system-ui, sans-serif" font-size="8">市场结构</text>

  <rect x="495" y="545" width="70" height="45" rx="6" fill="#0f172a" stroke="#f59e0b" stroke-width="1"/>
  <text x="530" y="567" text-anchor="middle" fill="#f59e0b" font-family="system-ui, sans-serif" font-size="11" font-weight="bold">人和</text>
  <text x="530" y="581" text-anchor="middle" fill="#94a3b8" font-family="system-ui, sans-serif" font-size="8">博弈反馈</text>

  <rect x="575" y="545" width="130" height="45" rx="6" fill="#0f172a" stroke="#fbbf24" stroke-width="1.5"/>
  <text x="640" y="567" text-anchor="middle" fill="#fbbf24" font-family="system-ui, sans-serif" font-size="11" font-weight="bold">输出</text>
  <text x="640" y="581" text-anchor="middle" fill="#e2e8f0" font-family="system-ui, sans-serif" font-size="8">α / timing / regime</text>

  <!-- ========== FirstPrinciplesMind ========== -->
  <rect x="480" y="195" width="210" height="200" rx="12" fill="url(#fpGrad)" filter="url(#cardShadow)"/>
  <rect x="480" y="195" width="210" height="200" rx="12" fill="none" stroke="#a855f7" stroke-width="1" opacity="0.4"/>
  <rect x="480" y="195" width="210" height="38" rx="12" fill="#7c3aed"/>
  <rect x="480" y="223" width="210" height="10" fill="#7c3aed"/>
  <text x="585" y="221" text-anchor="middle" fill="#fff" font-family="system-ui, sans-serif" font-size="13" font-weight="bold">FirstPrinciplesMind</text>

  <text x="585" y="265" text-anchor="middle" fill="#c4b5fd" font-family="system-ui, sans-serif" font-size="10">第一性原理</text>

  <rect x="500" y="280" width="170" height="50" rx="6" fill="#0f172a" stroke="#a855f7" stroke-width="1" opacity="0.8"/>
  <text x="585" y="302" text-anchor="middle" fill="#a855f7" font-family="system-ui, sans-serif" font-size="11">think()</text>
  <text x="585" y="320" text-anchor="middle" fill="#64748b" font-family="system-ui, sans-serif" font-size="9">(market_state, snapshot)</text>

  <text x="585" y="365" text-anchor="middle" fill="#e2e8f0" font-family="system-ui, sans-serif" font-size="11">→ insights[]</text>
  <text x="585" y="385" text-anchor="middle" fill="#94a3b8" font-family="system-ui, sans-serif" font-size="9">从根本逻辑推理市场</text>

  <!-- ========== AwakenedAlaya ========== -->
  <rect x="710" y="195" width="210" height="200" rx="12" fill="url(#alayaGrad)" filter="url(#cardShadow)"/>
  <rect x="710" y="195" width="210" height="200" rx="12" fill="none" stroke="#10b981" stroke-width="1" opacity="0.4"/>
  <rect x="710" y="195" width="210" height="38" rx="12" fill="#059669"/>
  <rect x="710" y="223" width="210" height="10" fill="#059669"/>
  <text x="815" y="221" text-anchor="middle" fill="#fff" font-family="system-ui, sans-serif" font-size="13" font-weight="bold">AwakenedAlaya</text>

  <text x="815" y="265" text-anchor="middle" fill="#6ee7b7" font-family="system-ui, sans-serif" font-size="10">模式匹配 · 顿悟层</text>

  <rect x="730" y="280" width="170" height="50" rx="6" fill="#0f172a" stroke="#10b981" stroke-width="1" opacity="0.8"/>
  <text x="815" y="302" text-anchor="middle" fill="#10b981" font-family="system-ui, sans-serif" font-size="11">illuminate()</text>
  <text x="815" y="320" text-anchor="middle" fill="#64748b" font-family="system-ui, sans-serif" font-size="9">(market_data, manas, fp)</text>

  <text x="815" y="365" text-anchor="middle" fill="#e2e8f0" font-family="system-ui, sans-serif" font-size="11">→ recalled_patterns</text>
  <text x="815" y="385" text-anchor="middle" fill="#94a3b8" font-family="system-ui, sans-serif" font-size="9">历史经验触发"觉醒"时刻</text>

  <!-- ========== DecisionFusion ========== -->
  <rect x="400" y="640" width="400" height="140" rx="12" fill="url(#fusionGrad)" filter="url(#cardShadow)"/>
  <rect x="400" y="640" width="400" height="140" rx="12" fill="none" stroke="#ec4899" stroke-width="1" opacity="0.4"/>
  <rect x="400" y="640" width="400" height="40" rx="12" fill="#be185d"/>
  <rect x="400" y="670" width="400" height="10" fill="#be185d"/>
  <text x="600" y="668" text-anchor="middle" fill="#fff" font-family="system-ui, sans-serif" font-size="15" font-weight="bold">DecisionFusion</text>

  <!-- Three input paths -->
  <rect x="420" y="700" width="110" height="65" rx="8" fill="#0f172a" stroke="#a855f7" stroke-width="1"/>
  <text x="475" y="723" text-anchor="middle" fill="#c4b5fd" font-family="system-ui, sans-serif" font-size="10" font-weight="bold">FP Insights</text>
  <text x="475" y="742" text-anchor="middle" fill="#94a3b8" font-family="system-ui, sans-serif" font-size="9">× level加成</text>
  <text x="475" y="757" text-anchor="middle" fill="#64748b" font-family="system-ui, sans-serif" font-size="8">基础置信度</text>

  <rect x="545" y="700" width="110" height="65" rx="8" fill="#0f172a" stroke="#f59e0b" stroke-width="1"/>
  <text x="600" y="723" text-anchor="middle" fill="#fbbf24" font-family="system-ui, sans-serif" font-size="10" font-weight="bold">Manas四维</text>
  <text x="600" y="742" text-anchor="middle" fill="#94a3b8" font-family="system-ui, sans-serif" font-size="9">timing/regime</text>
  <text x="600" y="757" text-anchor="middle" fill="#94a3b8" font-family="system-ui, sans-serif" font-size="9">risk_temperature</text>

  <rect x="670" y="700" width="110" height="65" rx="8" fill="#0f172a" stroke="#10b981" stroke-width="1"/>
  <text x="725" y="723" text-anchor="middle" fill="#34d399" font-family="system-ui, sans-serif" font-size="10" font-weight="bold">Awakening</text>
  <text x="725" y="742" text-anchor="middle" fill="#94a3b8" font-family="system-ui, sans-serif" font-size="9">×1.1 enlightened</text>
  <text x="725" y="757" text-anchor="middle" fill="#94a3b8" font-family="system-ui, sans-serif" font-size="9">×1.05 illuminated</text>

  <!-- ========== FusionOutput ========== -->
  <rect x="820" y="640" width="180" height="140" rx="12" fill="url(#outputGrad)" filter="url(#cardShadow)"/>
  <rect x="820" y="640" width="180" height="140" rx="12" fill="none" stroke="#10b981" stroke-width="1" opacity="0.5"/>
  <rect x="820" y="640" width="180" height="40" rx="12" fill="#047857"/>
  <rect x="820" y="670" width="180" height="10" fill="#047857"/>
  <text x="910" y="668" text-anchor="middle" fill="#fff" font-family="system-ui, sans-serif" font-size="14" font-weight="bold">FusionOutput</text>

  <text x="910" y="710" text-anchor="middle" fill="#a7f3d0" font-family="system-ui, sans-serif" font-size="11">should_act</text>
  <text x="910" y="732" text-anchor="middle" fill="#a7f3d0" font-family="system-ui, sans-serif" font-size="11">action_type</text>
  <text x="910" y="754" text-anchor="middle" fill="#6ee7b7" font-family="system-ui, sans-serif" font-size="12" font-weight="bold">final_confidence</text>

  <!-- ========== Arrows ========== -->
  <!-- Layer 1 to Layer 2 -->
  <path d="M 600 160 L 240 195" stroke="#64748b" stroke-width="1.5" fill="none" marker-end="url(#arrow)"/>
  <path d="M 600 160 L 585 195" stroke="#64748b" stroke-width="1.5" fill="none" marker-end="url(#arrow)"/>
  <path d="M 600 160 L 815 195" stroke="#64748b" stroke-width="1.5" fill="none" marker-end="url(#arrow)"/>

  <!-- AttentionOS to Manas (dashed) -->
  <path d="M 380 380 L 480 460" stroke="#f59e0b" stroke-width="2" fill="none" stroke-dasharray="6,4" marker-end="url(#arrowAmber)"/>

  <!-- Layer 2 to Layer 3 -->
  <path d="M 240 395 L 475 700" stroke="#94a3b8" stroke-width="1.5" fill="none" marker-end="url(#arrow)"/>
  <path d="M 585 395 L 600 700" stroke="#a855f7" stroke-width="1.5" fill="none" marker-end="url(#arrow)"/>
  <path d="M 815 395 L 725 700" stroke="#10b981" stroke-width="1.5" fill="none" marker-end="url(#arrowGreen)"/>

  <!-- Fusion to Output -->
  <path d="M 800 720 L 820 720" stroke="#10b981" stroke-width="2" fill="none" marker-end="url(#arrowGreen)"/>

  <!-- ========== Legend / Formula Box ========== -->
  <rect x="50" y="800" width="1100" height="130" rx="10" fill="#1e293b" stroke="#334155" stroke-width="1" filter="url(#cardShadow)"/>

  <text x="80" y="828" fill="#e2e8f0" font-family="system-ui, sans-serif" font-size="13" font-weight="bold">核心公式</text>

  <rect x="80" y="845" width="4" height="40" rx="2" fill="#60a5fa"/>
  <text x="95" y="862" fill="#60a5fa" font-family="monospace" font-size="10">final_weight</text>
  <text x="95" y="878" fill="#94a3b8" font-family="monospace" font-size="9">= base_weight × attention_weight × α × harmony × confidence</text>

  <rect x="420" y="845" width="4" height="40" rx="2" fill="#3b82f6"/>
  <text x="435" y="862" fill="#3b82f6" font-family="monospace" font-size="10">composite_score</text>
  <text x="435" y="878" fill="#94a3b8" font-family="monospace" font-size="9">= harmony×0.5 + timing×0.3 + (regime>0 ? 0.2 : 0.3)</text>

  <rect x="750" y="845" width="4" height="40" rx="2" fill="#f59e0b"/>
  <text x="765" y="862" fill="#f59e0b" font-family="monospace" font-size="10">α</text>
  <text x="780" y="862" fill="#fbbf24" font-family="monospace" font-size="10">= confidence × harmony × bias_correction</text>

  <text x="765" y="882" fill="#94a3b8" font-family="monospace" font-size="9">clamped to [0.3, 1.5]</text>

  <rect x="80" y="895" width="4" height="20" rx="2" fill="#ec4899"/>
  <text x="95" y="910" fill="#f472b6" font-family="system-ui, sans-serif" font-size="10">action_type</text>
  <text x="190" y="910" fill="#94a3b8" font-family="system-ui, sans-serif" font-size="9">→ hold / buy / sell / act_carefully / act_minimally</text>

  <rect x="420" y="895" width="4" height="20" rx="2" fill="#10b981"/>
  <text x="435" y="910" fill="#34d399" font-family="system-ui, sans-serif" font-size="10">harmony_state</text>
  <text x="550" y="910" fill="#94a3b8" font-family="system-ui, sans-serif" font-size="9">→ bullish / bearish / neutral</text>

  <!-- Color Legend -->
  <text x="800" y="862" fill="#64748b" font-family="system-ui, sans-serif" font-size="9">图例</text>

  <rect x="800" y="872" width="12" height="12" rx="2" fill="#3b82f6"/>
  <text x="818" y="882" fill="#94a3b8" font-family="system-ui, sans-serif" font-size="8">调度层</text>

  <rect x="800" y="892" width="12" height="12" rx="2" fill="#f59e0b"/>
  <text x="818" y="902" fill="#94a3b8" font-family="system-ui, sans-serif" font-size="8">决策内核</text>

  <rect x="870" y="872" width="12" height="12" rx="2" fill="#a855f7"/>
  <text x="888" y="882" fill="#94a3b8" font-family="system-ui, sans-serif" font-size="8">推理层</text>

  <rect x="870" y="892" width="12" height="12" rx="2" fill="#10b981"/>
  <text x="888" y="902" fill="#94a3b8" font-family="system-ui, sans-serif" font-size="8">顿悟层</text>

  <rect x="940" y="872" width="12" height="12" rx="2" fill="#ec4899"/>
  <text x="958" y="882" fill="#94a3b8" font-family="system-ui, sans-serif" font-size="8">融合层</text>

  <rect x="940" y="892" width="12" height="12" rx="2" fill="#fbbf24"/>
  <text x="958" y="902" fill="#94a3b8" font-family="system-ui, sans-serif" font-size="8">输出</text>

</svg>