<?xml version="1.0" encoding="UTF-8"?>
<svg xmlns="http://www.w3.org/2000/svg" viewBox="0 0 1400 900" font-family="PingFang SC, Microsoft YaHei, sans-serif">
  <defs>
    <linearGradient id="bgGrad" x1="0%" y1="0%" x2="100%" y2="100%">
      <stop offset="0%" style="stop-color:#0a0e27"/>
      <stop offset="100%" style="stop-color:#1a1f3c"/>
    </linearGradient>
    <linearGradient id="grad1" x1="0%" y1="0%" x2="0%" y2="100%">
      <stop offset="0%" style="stop-color:#4a90d9"/>
      <stop offset="100%" style="stop-color:#2d5a87"/>
    </linearGradient>
    <linearGradient id="grad2" x1="0%" y1="0%" x2="0%" y2="100%">
      <stop offset="0%" style="stop-color:#5ba881"/>
      <stop offset="100%" style="stop-color:#3d7359"/>
    </linearGradient>
    <linearGradient id="grad3" x1="0%" y1="0%" x2="0%" y2="100%">
      <stop offset="0%" style="stop-color:#d4a84b"/>
      <stop offset="100%" style="stop-color:#a68339"/>
    </linearGradient>
    <linearGradient id="grad4" x1="0%" y1="0%" x2="0%" y2="100%">
      <stop offset="0%" style="stop-color:#c75b7a"/>
      <stop offset="100%" style="stop-color:#9f4862"/>
    </linearGradient>
    <linearGradient id="grad5" x1="0%" y1="0%" x2="0%" y2="100%">
      <stop offset="0%" style="stop-color:#7b68c9"/>
      <stop offset="100%" style="stop-color:#5d52a3"/>
    </linearGradient>
    <filter id="shadow" x="-20%" y="-20%" width="140%" height="140%">
      <feDropShadow dx="2" dy="4" stdDeviation="4" flood-opacity="0.3"/>
    </filter>
  </defs>

  <rect width="1400" height="900" fill="url(#bgGrad)"/>

  <text x="700" y="55" text-anchor="middle" fill="#ffffff" font-size="36" font-weight="bold">Naja 系统全景图</text>
  <text x="700" y="85" text-anchor="middle" fill="#8899bb" font-size="18">全体工作人员一览</text>

  <!-- 前方作战部队 -->
  <rect x="40" y="120" width="1320" height="160" rx="15" fill="#1e2644" stroke="#4a90d9" stroke-width="2" filter="url(#shadow)"/>
  <text x="70" y="150" fill="#4a90d9" font-size="20" font-weight="bold">📡 前方作战部队</text>
  <text x="70" y="175" fill="#8899bb" font-size="14">决策链：侦察 → 分析 → 决策 → 执行</text>

  <!-- 作战链 -->
  <g transform="translate(100, 200)">
    <rect x="0" y="0" width="160" height="60" rx="10" fill="url(#grad1)" filter="url(#shadow)"/>
    <text x="80" y="28" text-anchor="middle" fill="#ffffff" font-size="18" font-weight="bold">雷达 Radar</text>
    <text x="80" y="48" text-anchor="middle" fill="#ccd" font-size="12">侦察兵</text>

    <path d="M165 30 L235 30" stroke="#4a90d9" stroke-width="3" marker-end="url(#arrow)"/>
    <polygon points="235,30 225,24 225,36" fill="#4a90d9"/>

    <rect x="240" y="0" width="160" height="60" rx="10" fill="url(#grad2)" filter="url(#shadow)"/>
    <text x="320" y="28" text-anchor="middle" fill="#ffffff" font-size="18" font-weight="bold">注意力 Attention</text>
    <text x="320" y="48" text-anchor="middle" fill="#ccd" font-size="12">参谋部</text>

    <path d="M405 30 L475 30" stroke="#5ba881" stroke-width="3"/>
    <polygon points="475,30 465,24 465,36" fill="#5ba881"/>

    <rect x="480" y="0" width="160" height="60" rx="10" fill="url(#grad3)" filter="url(#shadow)"/>
    <text x="560" y="28" text-anchor="middle" fill="#ffffff" font-size="18" font-weight="bold">认知 Cognition</text>
    <text x="560" y="48" text-anchor="middle" fill="#ccd" font-size="12">军师</text>

    <path d="M645 30 L715 30" stroke="#d4a84b" stroke-width="3"/>
    <polygon points="715,30 705,24 705,36" fill="#d4a84b"/>

    <rect x="720" y="0" width="160" height="60" rx="10" fill="url(#grad4)" filter="url(#shadow)"/>
    <text x="800" y="28" text-anchor="middle" fill="#ffffff" font-size="18" font-weight="bold">觉醒 Awakened</text>
    <text x="800" y="48" text-anchor="middle" fill="#ccd" font-size="12">将军</text>

    <path d="M885 30 L955 30" stroke="#c75b7a" stroke-width="3"/>
    <polygon points="955,30 945,24 945,36" fill="#c75b7a"/>

    <rect x="960" y="0" width="160" height="60" rx="10" fill="url(#grad5)" filter="url(#shadow)"/>
    <text x="1040" y="28" text-anchor="middle" fill="#ffffff" font-size="18" font-weight="bold">执行 Execution</text>
    <text x="1040" y="48" text-anchor="middle" fill="#ccd" font-size="12">士兵</text>
  </g>

  <!-- 情报系统 -->
  <rect x="40" y="300" width="640" height="180" rx="15" fill="#1e2644" stroke="#5ba881" stroke-width="2" filter="url(#shadow)"/>
  <text x="70" y="330" fill="#5ba881" font-size="20" font-weight="bold">📊 情报系统</text>

  <g transform="translate(70, 350)">
    <rect x="0" y="0" width="280" height="110" rx="10" fill="#253258" stroke="#4a90d9" stroke-width="1"/>
    <text x="140" y="30" text-anchor="middle" fill="#ffffff" font-size="18" font-weight="bold">DataSource</text>
    <text x="140" y="55" text-anchor="middle" fill="#8899bb" font-size="13">数据采集员</text>
    <text x="20" y="80" fill="#aabbcc" font-size="11">• 定时获取数据</text>
    <text x="20" y="97" fill="#aabbcc" font-size="11">• 文件/目录监控</text>

    <rect x="300" y="0" width="280" height="110" rx="10" fill="#253258" stroke="#5ba881" stroke-width="1"/>
    <text x="440" y="30" text-anchor="middle" fill="#ffffff" font-size="18" font-weight="bold">StockDictionary</text>
    <text x="440" y="55" text-anchor="middle" fill="#8899bb" font-size="13">情报库</text>
    <text x="320" y="80" fill="#aabbcc" font-size="11">• 股票基础信息</text>
    <text x="320" y="97" fill="#aabbcc" font-size="11">• 板块分类/指标</text>
  </g>

  <!-- 武器系统 -->
  <rect x="720" y="300" width="640" height="180" rx="15" fill="#1e2644" stroke="#d4a84b" stroke-width="2" filter="url(#shadow)"/>
  <text x="750" y="330" fill="#d4a84b" font-size="20" font-weight="bold">⚔️ 武器系统</text>

  <g transform="translate(750, 350)">
    <rect x="0" y="0" width="280" height="110" rx="10" fill="#253258" stroke="#d4a84b" stroke-width="1"/>
    <text x="140" y="30" text-anchor="middle" fill="#ffffff" font-size="18" font-weight="bold">Strategy</text>
    <text x="140" y="55" text-anchor="middle" fill="#8899bb" font-size="13">武器库</text>
    <text x="20" y="80" fill="#aabbcc" font-size="11">• River/Momentum策略</text>
    <text x="20" y="97" fill="#aabbcc" font-size="11">• 市场分类/板块轮动</text>

    <rect x="300" y="0" width="280" height="110" rx="10" fill="#253258" stroke="#c75b7a" stroke-width="1"/>
    <text x="440" y="30" text-anchor="middle" fill="#ffffff" font-size="18" font-weight="bold">Bandit</text>
    <text x="440" y="55" text-anchor="middle" fill="#8899bb" font-size="13">武器选择官</text>
    <text x="320" y="80" fill="#aabbcc" font-size="11">• 策略选择/在线学习</text>
    <text x="320" y="97" fill="#aabbcc" font-size="11">• 自适应周期/归因</text>
  </g>

  <!-- 通讯后勤 -->
  <rect x="40" y="500" width="640" height="150" rx="15" fill="#1e2644" stroke="#c75b7a" stroke-width="2" filter="url(#shadow)"/>
  <text x="70" y="530" fill="#c75b7a" font-size="20" font-weight="bold">📡 通讯后勤</text>

  <g transform="translate(70, 550)">
    <rect x="0" y="0" width="140" height="80" rx="8" fill="#253258"/>
    <text x="70" y="30" text-anchor="middle" fill="#ffffff" font-size="14" font-weight="bold">Task</text>
    <text x="70" y="50" text-anchor="middle" fill="#8899bb" font-size="11">任务系统</text>
    <text x="70" y="68" text-anchor="middle" fill="#aabbcc" font-size="10">定时任务</text>

    <rect x="155" y="0" width="140" height="80" rx="8" fill="#253258"/>
    <text x="225" y="30" text-anchor="middle" fill="#ffffff" font-size="14" font-weight="bold">Signal</text>
    <text x="225" y="50" text-anchor="middle" fill="#8899bb" font-size="11">信号系统</text>
    <text x="225" y="68" text-anchor="middle" fill="#aabbcc" font-size="10">分发信号</text>

    <rect x="310" y="0" width="140" height="80" rx="8" fill="#253258"/>
    <text x="380" y="30" text-anchor="middle" fill="#ffffff" font-size="14" font-weight="bold">Risk</text>
    <text x="380" y="50" text-anchor="middle" fill="#8899bb" font-size="11">风控系统</text>
    <text x="380" y="68" text-anchor="middle" fill="#aabbcc" font-size="10">仓位管理</text>

    <rect x="465" y="0" width="140" height="80" rx="8" fill="#253258"/>
    <text x="535" y="30" text-anchor="middle" fill="#ffffff" font-size="14" font-weight="bold">Scheduler</text>
    <text x="535" y="50" text-anchor="middle" fill="#8899bb" font-size="11">调度中心</text>
    <text x="535" y="68" text-anchor="middle" fill="#aabbcc" font-size="10">统一调度</text>
  </g>

  <!-- 支援保障 -->
  <rect x="720" y="500" width="640" height="150" rx="15" fill="#1e2644" stroke="#7b68c9" stroke-width="2" filter="url(#shadow)"/>
  <text x="750" y="530" fill="#7b68c9" font-size="20" font-weight="bold">🛡️ 支援保障</text>

  <g transform="translate(750, 550)">
    <rect x="0" y="0" width="115" height="80" rx="8" fill="#253258"/>
    <text x="57" y="30" text-anchor="middle" fill="#ffffff" font-size="13" font-weight="bold">Performance</text>
    <text x="57" y="50" text-anchor="middle" fill="#8899bb" font-size="10">性能监控</text>
    <text x="57" y="68" text-anchor="middle" fill="#aabbcc" font-size="9">仪表盘</text>

    <rect x="130" y="0" width="115" height="80" rx="8" fill="#253258"/>
    <text x="187" y="30" text-anchor="middle" fill="#ffffff" font-size="13" font-weight="bold">Supervisor</text>
    <text x="187" y="50" text-anchor="middle" fill="#8899bb" font-size="10">监督系统</text>
    <text x="187" y="68" text-anchor="middle" fill="#aabbcc" font-size="9">监察员</text>

    <rect x="260" y="0" width="115" height="80" rx="8" fill="#253258"/>
    <text x="317" y="30" text-anchor="middle" fill="#ffffff" font-size="13" font-weight="bold">AutoTuner</text>
    <text x="317" y="50" text-anchor="middle" fill="#8899bb" font-size="10">自动调优</text>
    <text x="317" y="68" text-anchor="middle" fill="#aabbcc" font-size="9">修理工</text>

    <rect x="390" y="0" width="115" height="80" rx="8" fill="#253258"/>
    <text x="447" y="30" text-anchor="middle" fill="#ffffff" font-size="13" font-weight="bold">LLMController</text>
    <text x="447" y="50" text-anchor="middle" fill="#8899bb" font-size="10">LLM控制</text>
    <text x="447" y="68" text-anchor="middle" fill="#aabbcc" font-size="9">智囊团</text>

    <rect x="520" y="0" width="115" height="80" rx="8" fill="#253258"/>
    <text x="577" y="30" text-anchor="middle" fill="#ffffff" font-size="13" font-weight="bold">StreamSkill</text>
    <text x="577" y="50" text-anchor="middle" fill="#8899bb" font-size="10">流式Skill</text>
    <text x="577" y="68" text-anchor="middle" fill="#aabbcc" font-size="9">技能框架</text>
  </g>

  <!-- 协调指挥中心 -->
  <rect x="40" y="670" width="1320" height="100" rx="15" fill="#2a3158" stroke="#ffffff" stroke-width="2" filter="url(#shadow)"/>
  <text x="700" y="710" text-anchor="middle" fill="#ffffff" font-size="24" font-weight="bold">🎯 协调指挥中心</text>
  <text x="700" y="745" text-anchor="middle" fill="#8899bb" font-size="16">AttentionOrchestrator (Center.py) — 统一协调所有系统，确保协同工作</text>

  <!-- 层次总结 -->
  <g transform="translate(40, 800)">
    <text x="0" y="20" fill="#ffffff" font-size="16" font-weight="bold">层次定位：</text>
    <rect x="120" y="5" width="120" height="28" rx="5" fill="#4a90d9"/>
    <text x="180" y="25" text-anchor="middle" fill="#fff" font-size="12">情报层</text>
    <rect x="250" y="5" width="120" height="28" rx="5" fill="#5ba881"/>
    <text x="310" y="25" text-anchor="middle" fill="#fff" font-size="12">侦察层</text>
    <rect x="380" y="5" width="120" height="28" rx="5" fill="#d4a84b"/>
    <text x="440" y="25" text-anchor="middle" fill="#fff" font-size="12">分析层</text>
    <rect x="510" y="5" width="120" height="28" rx="5" fill="#c75b7a"/>
    <text x="570" y="25" text-anchor="middle" fill="#fff" font-size="12">决策层</text>
    <rect x="640" y="5" width="120" height="28" rx="5" fill="#7b68c9"/>
    <text x="700" y="25" text-anchor="middle" fill="#fff" font-size="12">执行层</text>
    <text x="800" y="25" fill="#8899bb" font-size="14">回答：数据从哪来？→外面发生了什么？→市场讲什么？→买还是卖？→怎么执行？</text>
  </g>

  <text x="1350" y="880" text-anchor="end" fill="#556688" font-size="12">Naja System Overview — 2026-03-31</text>
</svg>
